<?xml version="1.0" encoding="UTF-8"?>
<svg xmlns="http://www.w3.org/2000/svg" xmlns:xlink="http://www.w3.org/1999/xlink" width="32px" height="32px" viewBox="0 0 32 32" version="1.1">
    <g id="surface1">
        <path style=" stroke:none;fill-rule:nonzero;fill:rgb(90.588235%,43.529412%,0%);fill-opacity:1;" d="M 16.050781 8.441406 C 22.636719 3.324219 19.257812 0 19.257812 0 C 19.761719 5.289062 13.8125 6.535156 12.21875 10.167969 C 11.132812 12.648438 12.964844 14.820312 16.046875 17.554688 C 15.773438 16.949219 15.355469 16.359375 14.929688 15.765625 C 13.476562 13.730469 11.964844 11.613281 16.050781 8.441406 Z M 16.050781 8.441406 "/>
        <path style=" stroke:none;fill-rule:nonzero;fill:rgb(90.588235%,43.529412%,0%);fill-opacity:1;" d="M 17.101562 18.675781 C 17.101562 18.675781 19.082031 17.078125 17.515625 15.300781 C 12.191406 9.273438 23.332031 6.535156 23.332031 6.535156 C 16.53125 9.8125 17.546875 11.757812 19.257812 14.121094 C 21.085938 16.652344 17.101562 18.675781 17.101562 18.675781 Z M 17.101562 18.675781 "/>
        <path style=" stroke:none;fill-rule:nonzero;fill:rgb(32.54902%,50.980392%,63.137255%);fill-opacity:1;" d="M 22.9375 23.445312 C 29.042969 20.324219 26.21875 17.328125 24.25 17.730469 C 23.765625 17.832031 23.550781 17.917969 23.550781 17.917969 C 23.550781 17.917969 23.730469 17.640625 24.074219 17.519531 C 27.96875 16.171875 30.96875 21.496094 22.8125 23.601562 C 22.8125 23.601562 22.910156 23.519531 22.9375 23.445312 Z M 22.9375 23.445312 "/>
        <path style=" stroke:none;fill-rule:nonzero;fill:rgb(32.54902%,50.980392%,63.137255%);fill-opacity:1;" d="M 10.234375 19.496094 C 6.414062 18.996094 12.328125 17.613281 12.328125 17.613281 C 12.328125 17.613281 10.03125 17.460938 7.207031 18.804688 C 3.867188 20.394531 15.46875 21.117188 21.472656 19.5625 C 22.097656 19.144531 22.960938 18.78125 22.960938 18.78125 C 22.960938 18.78125 20.503906 19.210938 18.054688 19.414062 C 15.0625 19.660156 11.847656 19.710938 10.234375 19.496094 Z M 10.234375 19.496094 "/>
        <path style=" stroke:none;fill-rule:nonzero;fill:rgb(32.54902%,50.980392%,63.137255%);fill-opacity:1;" d="M 11.6875 22.476562 C 9.554688 22.257812 10.949219 21.242188 10.949219 21.242188 C 5.4375 23.042969 14.019531 25.082031 21.71875 22.867188 C 20.902344 22.585938 20.378906 22.066406 20.378906 22.066406 C 16.617188 22.777344 14.441406 22.753906 11.6875 22.476562 Z M 11.6875 22.476562 "/>
        <path style=" stroke:none;fill-rule:nonzero;fill:rgb(32.54902%,50.980392%,63.137255%);fill-opacity:1;" d="M 12.613281 25.699219 C 10.484375 25.457031 11.730469 24.746094 11.730469 24.746094 C 6.726562 26.121094 14.773438 28.960938 21.144531 26.277344 C 20.101562 25.878906 19.351562 25.417969 19.351562 25.417969 C 16.511719 25.945312 15.191406 25.988281 12.613281 25.699219 Z M 12.613281 25.699219 "/>
        <path style=" stroke:none;fill-rule:nonzero;fill:rgb(32.54902%,50.980392%,63.137255%);fill-opacity:1;" d="M 25.9375 27.339844 C 25.9375 27.339844 26.859375 28.085938 24.925781 28.660156 C 21.25 29.757812 9.621094 30.085938 6.390625 28.703125 C 5.230469 28.207031 7.40625 27.519531 8.09375 27.375 C 8.804688 27.222656 9.214844 27.25 9.214844 27.25 C 7.921875 26.355469 0.867188 29.007812 5.632812 29.765625 C 18.621094 31.835938 29.308594 28.832031 25.9375 27.339844 Z M 25.9375 27.339844 "/>
        <path style=" stroke:none;fill-rule:nonzero;fill:rgb(32.54902%,50.980392%,63.137255%);fill-opacity:1;" d="M 28 28.96875 C 27.785156 31.695312 18.789062 32.269531 12.925781 31.898438 C 9.105469 31.660156 8.339844 31.054688 8.328125 31.046875 C 11.984375 31.640625 18.15625 31.75 23.15625 30.824219 C 27.589844 30 28 28.96875 28 28.96875 Z M 28 28.96875 "/>
    </g>
</svg>