<?xml version="1.0" encoding="UTF-8"?>
<svg xmlns="http://www.w3.org/2000/svg" xmlns:xlink="http://www.w3.org/1999/xlink" width="32px" height="32px" viewBox="0 0 32 32" version="1.1">
    <g id="surface1">
        <path style=" stroke:none;fill-rule:nonzero;fill:rgb(100%,79.215686%,15.686275%);fill-opacity:1;" d="M 2 2 L 30 2 L 30 30 L 2 30 Z M 2 2 "/>
        <path style=" stroke:none;fill-rule:nonzero;fill:rgb(24.313725%,24.313725%,24.313725%);fill-opacity:1;" d="M 19 25.289062 L 21.0625 23.921875 C 21.222656 24.429688 22.246094 25.636719 23.539062 25.636719 C 24.832031 25.636719 25.429688 24.929688 25.429688 24.464844 C 25.429688 23.1875 24.109375 22.738281 23.476562 22.523438 C 23.375 22.488281 23.289062 22.457031 23.230469 22.433594 C 23.199219 22.417969 23.15625 22.402344 23.097656 22.378906 C 22.394531 22.109375 19.792969 21.117188 19.792969 18.238281 C 19.792969 15.066406 22.855469 14.699219 23.546875 14.699219 C 24 14.699219 26.175781 14.753906 27.261719 16.792969 L 25.261719 18.191406 C 24.824219 17.300781 24.09375 17.007812 23.644531 17.007812 C 22.539062 17.007812 22.308594 17.820312 22.308594 18.191406 C 22.308594 19.226562 23.511719 19.691406 24.527344 20.085938 C 24.792969 20.1875 25.046875 20.285156 25.261719 20.386719 C 26.371094 20.910156 28 21.765625 28 24.464844 C 28 25.8125 26.867188 28 24.015625 28 C 20.183594 28 19.167969 25.699219 19 25.289062 Z M 19 25.289062 "/>
        <path style=" stroke:none;fill-rule:nonzero;fill:rgb(24.313725%,24.313725%,24.313725%);fill-opacity:1;" d="M 9 25.558594 L 11.148438 24.195312 C 11.316406 24.703125 11.972656 25.636719 12.921875 25.636719 C 13.871094 25.636719 14.355469 24.664062 14.355469 24.195312 L 14.355469 15 L 17 15 L 17 24.195312 C 17.039062 25.464844 16.335938 28 13.234375 28 C 10.378906 28 9.191406 26.304688 9 25.558594 Z M 9 25.558594 "/>
    </g>
</svg>