<?xml version="1.0" encoding="UTF-8"?>
<svg xmlns="http://www.w3.org/2000/svg" xmlns:xlink="http://www.w3.org/1999/xlink" width="32px" height="32px" viewBox="0 0 32 32" version="1.1">
    <g id="surface1">
        <path style=" stroke:none;fill-rule:nonzero;fill:rgb(32.54902%,75.686275%,87.058824%);fill-opacity:1;" d="M 18.679688 15.976562 C 18.679688 14.542969 17.480469 13.378906 16 13.378906 C 14.519531 13.378906 13.320312 14.542969 13.320312 15.976562 C 13.320312 17.410156 14.519531 18.574219 16 18.574219 C 17.480469 18.574219 18.679688 17.410156 18.679688 15.976562 Z M 18.679688 15.976562 "/>
        <path style=" stroke:none;fill-rule:evenodd;fill:rgb(32.54902%,75.686275%,87.058824%);fill-opacity:1;" d="M 24.699219 11.152344 C 25.265625 8.925781 25.976562 4.792969 23.46875 3.390625 C 20.976562 1.996094 17.726562 4.667969 16.015625 6.273438 C 14.304688 4.683594 10.964844 2.023438 8.460938 3.429688 C 5.96875 4.828125 6.738281 8.894531 7.316406 11.136719 C 4.988281 11.777344 1 13.15625 1 15.976562 C 1 18.789062 4.984375 20.289062 7.296875 20.929688 C 6.714844 23.183594 5.984375 27.191406 8.484375 28.585938 C 10.996094 29.992188 14.324219 27.394531 16.054688 25.773438 C 17.78125 27.386719 20.996094 30.003906 23.492188 28.601562 C 25.996094 27.195312 25.34375 23.117188 24.765625 20.863281 C 27.007812 20.222656 31 18.753906 31 15.976562 C 31 13.183594 26.992188 11.792969 24.699219 11.152344 Z M 24.417969 19.667969 C 24.035156 18.5 23.523438 17.261719 22.898438 15.980469 C 23.496094 14.730469 23.988281 13.507812 24.355469 12.351562 C 26.035156 12.824219 29.71875 13.902344 29.71875 15.976562 C 29.71875 18.070312 26.183594 19.160156 24.417969 19.667969 Z M 22.851562 27.527344 C 20.988281 28.570312 18.222656 26.070312 16.949219 24.882812 C 17.792969 23.984375 18.636719 22.941406 19.460938 21.785156 C 20.914062 21.660156 22.28125 21.457031 23.527344 21.175781 C 23.933594 22.773438 24.71875 26.476562 22.851562 27.527344 Z M 9.125 27.511719 C 7.261719 26.46875 8.113281 22.894531 8.539062 21.234375 C 9.769531 21.496094 11.128906 21.6875 12.582031 21.800781 C 13.414062 22.933594 14.28125 23.972656 15.15625 24.886719 C 14.074219 25.902344 10.996094 28.558594 9.125 27.511719 Z M 2.28125 15.976562 C 2.28125 13.875 5.941406 12.804688 7.660156 12.332031 C 8.035156 13.515625 8.527344 14.753906 9.121094 16.007812 C 8.519531 17.277344 8.019531 18.535156 7.640625 19.730469 C 6.003906 19.277344 2.28125 18.078125 2.28125 15.976562 Z M 9.105469 4.503906 C 10.972656 3.453125 13.875 6.011719 15.117188 7.160156 C 14.246094 8.066406 13.382812 9.101562 12.558594 10.226562 C 11.148438 10.351562 9.796875 10.558594 8.558594 10.828125 C 8.089844 9.019531 7.234375 5.550781 9.105469 4.503906 Z M 20.378906 11.578125 C 21.335938 11.695312 22.253906 11.851562 23.113281 12.039062 C 22.855469 12.84375 22.535156 13.683594 22.15625 14.546875 C 21.605469 13.535156 21.015625 12.542969 20.378906 11.578125 Z M 16.015625 8.046875 C 16.605469 8.667969 17.199219 9.363281 17.78125 10.113281 C 16.597656 10.058594 15.414062 10.058594 14.234375 10.113281 C 14.816406 9.367188 15.414062 8.675781 16.015625 8.046875 Z M 9.855469 14.542969 C 9.484375 13.6875 9.164062 12.84375 8.902344 12.027344 C 9.757812 11.84375 10.671875 11.691406 11.621094 11.574219 C 10.988281 12.539062 10.398438 13.527344 9.855469 14.542969 Z M 11.648438 20.464844 C 10.667969 20.359375 9.742188 20.214844 8.886719 20.035156 C 9.152344 19.207031 9.476562 18.34375 9.859375 17.46875 C 10.40625 18.492188 11.003906 19.496094 11.648438 20.464844 Z M 16.050781 23.992188 C 15.441406 23.355469 14.835938 22.652344 14.246094 21.898438 C 15.433594 21.941406 16.625 21.941406 17.8125 21.890625 C 17.226562 22.660156 16.636719 23.363281 16.050781 23.992188 Z M 22.167969 17.421875 C 22.566406 18.308594 22.90625 19.164062 23.175781 19.980469 C 22.304688 20.171875 21.363281 20.328125 20.375 20.445312 C 21.015625 19.460938 21.613281 18.453125 22.167969 17.421875 Z M 18.746094 20.59375 C 16.929688 20.71875 15.101562 20.71875 13.285156 20.605469 C 12.25 19.140625 11.332031 17.601562 10.539062 16.003906 C 11.328125 14.410156 12.242188 12.875 13.269531 11.414062 C 15.085938 11.28125 16.917969 11.28125 18.738281 11.417969 C 19.757812 12.878906 20.667969 14.410156 21.476562 15.988281 C 20.675781 17.582031 19.757812 19.121094 18.746094 20.59375 Z M 22.832031 4.464844 C 24.699219 5.511719 23.867188 9.226562 23.460938 10.84375 C 22.214844 10.5625 20.863281 10.355469 19.449219 10.226562 C 18.625 9.089844 17.769531 8.054688 16.914062 7.160156 C 18.167969 5.984375 20.976562 3.429688 22.832031 4.464844 Z M 22.832031 4.464844 "/>
    </g>
</svg>