<?xml version="1.0" encoding="UTF-8"?>
<svg xmlns="http://www.w3.org/2000/svg" xmlns:xlink="http://www.w3.org/1999/xlink" width="32px" height="32px" viewBox="0 0 32 32" version="1.1">
    <g id="surface1">
        <path style=" stroke:none;fill-rule:nonzero;fill:rgb(42.745098%,70.196078%,24.705882%);fill-opacity:1;" d="M 26.941406 21.855469 C 23.648438 26.242188 16.617188 24.761719 12.109375 24.972656 C 12.109375 24.972656 11.3125 25.019531 10.507812 25.152344 C 10.507812 25.152344 10.8125 25.019531 11.203125 24.886719 C 14.367188 23.792969 15.863281 23.570312 17.785156 22.585938 C 21.398438 20.734375 24.996094 16.699219 25.730469 12.511719 C 24.351562 16.539062 20.167969 20.007812 16.359375 21.414062 C 13.753906 22.378906 9.039062 23.316406 9.035156 23.316406 C 8.972656 23.28125 8.910156 23.25 8.84375 23.214844 C 5.636719 21.652344 5.546875 14.707031 11.371094 12.46875 C 13.925781 11.488281 16.367188 12.023438 19.128906 11.367188 C 22.070312 10.667969 25.484375 8.460938 26.867188 5.574219 C 28.421875 10.1875 30.289062 17.398438 26.941406 21.855469 Z M 26.996094 4.148438 C 26.625 5.042969 26.148438 5.886719 25.574219 6.667969 C 23.070312 4.085938 19.621094 2.625 16.019531 2.628906 C 8.65625 2.628906 2.667969 8.617188 2.667969 15.980469 C 2.664062 19.691406 4.214844 23.238281 6.941406 25.757812 L 7.234375 26.015625 C 6.789062 25.570312 6.789062 24.847656 7.234375 24.402344 C 7.679688 23.957031 8.402344 23.957031 8.847656 24.402344 C 9.292969 24.847656 9.292969 25.570312 8.847656 26.019531 C 8.402344 26.464844 7.679688 26.464844 7.234375 26.019531 L 7.433594 26.195312 C 9.832031 28.222656 12.875 29.335938 16.019531 29.332031 C 23.058594 29.332031 28.835938 23.855469 29.332031 16.945312 C 29.699219 13.558594 28.699219 9.261719 26.996094 4.148438 "/>
    </g>
</svg>